<?xml version="1.0" encoding="UTF-8" standalone="no"?>
<!-- Created with Inkscape (http://www.inkscape.org/) -->

<svg
   width="210mm"
   height="297mm"
   viewBox="0 0 210 297"
   version="1.1"
   id="svg1"
   xml:space="preserve"
   inkscape:version="1.3.2 (091e20e, 2023-11-25, custom)"
   sodipodi:docname="logo_graphid.svg"
   xmlns:inkscape="http://www.inkscape.org/namespaces/inkscape"
   xmlns:sodipodi="http://sodipodi.sourceforge.net/DTD/sodipodi-0.dtd"
   xmlns="http://www.w3.org/2000/svg"
   xmlns:svg="http://www.w3.org/2000/svg"><sodipodi:namedview
     id="namedview1"
     pagecolor="#ffffff"
     bordercolor="#000000"
     borderopacity="0.25"
     inkscape:showpageshadow="2"
     inkscape:pageopacity="0.0"
     inkscape:pagecheckerboard="0"
     inkscape:deskcolor="#d1d1d1"
     inkscape:document-units="mm"
     inkscape:zoom="1.0242632"
     inkscape:cx="353.42478"
     inkscape:cy="506.21753"
     inkscape:window-width="1920"
     inkscape:window-height="1009"
     inkscape:window-x="-8"
     inkscape:window-y="-8"
     inkscape:window-maximized="1"
     inkscape:current-layer="svg1" /><defs
     id="defs1"><inkscape:path-effect
       effect="simplify"
       id="path-effect4"
       is_visible="true"
       lpeversion="1.3"
       threshold="64.5161"
       steps="1"
       smooth_angles="360"
       helper_size="0"
       simplify_individual_paths="false"
       simplify_just_coalesce="false" /><inkscape:path-effect
       effect="simplify"
       id="path-effect3"
       is_visible="true"
       lpeversion="1.3"
       threshold="64.5161"
       steps="1"
       smooth_angles="360"
       helper_size="0"
       simplify_individual_paths="false"
       simplify_just_coalesce="false" /><inkscape:path-effect
       effect="simplify"
       id="path-effect2"
       is_visible="true"
       lpeversion="1.3"
       threshold="64.5161"
       steps="1"
       smooth_angles="360"
       helper_size="0"
       simplify_individual_paths="false"
       simplify_just_coalesce="false" /></defs><path
     style="fill:#926b40;fill-opacity:1;stroke:none;stroke-width:0.4;stroke-linecap:round;stroke-linejoin:round;stroke-dasharray:none;stroke-opacity:1"
     d="m 82.399265,139.71273 16.16513,-13.79059 14.064565,-14.97786 9.86347,-10.5941 1.36993,-0.821952 1.73524,3.013842 c 0,0 3.10516,4.38376 3.47048,5.11439 0.36531,0.73062 0.6393,6.48431 0.6393,6.48431 l -1.18727,8.76753 -3.28783,11.50738 -3.5618,7.76291 -10.22879,8.6762 -6.94095,2.73986 -8.128225,-0.0913 c 0,0 -4.56642,-0.45664 -5.38838,-0.82196 -0.82196,-0.36531 -6.66697,-3.83579 -7.21495,-4.47509 -0.54797,-0.6393 -1.36992,-8.49354 -1.36992,-8.49354 z"
     id="path22" /><path
     style="fill:#ab8053;fill-opacity:1;stroke:none;stroke-width:0.4;stroke-linecap:round;stroke-linejoin:round;stroke-dasharray:none;stroke-opacity:1"
     d="m 63.933145,134.19505 17.11342,-16.40306 3.16437,-2.97063 2.32484,-0.38747 c 0,0 2.454,1.227 2.84148,1.48531 0.38747,0.25832 2.84147,3.03521 3.16436,3.29353 0.3229,0.25831 4.26221,3.681 4.26221,3.681 l 2.19569,2.77689 -15.30521,12.85121 -10.39721,0.71037 -7.0391,-0.0646 z"
     id="path18" /><path
     style="fill:#aa7f52;fill-opacity:1;stroke:none;stroke-width:0.4;stroke-linecap:round;stroke-linejoin:round;stroke-dasharray:none;stroke-opacity:1"
     d="m 106.08332,147.14627 5.29704,-7.71725 5.70803,-11.09641 2.83118,-15.16052 4.00742,-13.203892 1.09784,-2.324841 6.32874,6.135003 12.14084,12.85121 10.84926,10.07431 -1.87279,6.7808 -2.51858,5.36005 -1.61447,2.06653 -5.87669,-1.67906 -8.52442,-0.83952 -7.29742,0.12915 -4.77884,1.80821 -10.65552,5.42464 z"
     id="path21" /><path
     style="fill:#8f6a3e;fill-opacity:1;stroke:none;stroke-width:0.4;stroke-linecap:round;stroke-linejoin:round;stroke-dasharray:none;stroke-opacity:1"
     d="m 126.85337,138.6168 0.70779,-2.4887 -0.0913,-3.15083 -0.29682,-2.12339 -0.18265,-2.16906 v -1.2786 l 1.30143,0.79913 1.2101,1.05029 2.39737,1.75807 1.94073,1.1416 1.96356,0.82196 2.05489,0.6393 -2.12339,-1.73524 -1.96356,-3.10518 -1.94073,-2.85401 -2.05489,-3.56181 -1.34709,-3.74447 -0.54797,-2.78551 -0.22832,-3.24216 2.37454,3.49331 2.69419,3.0595 3.74446,3.51615 3.03667,2.46586 2.46587,2.10056 2.23754,1.50692 2.51154,1.11878 2.26037,0.86762 3.31066,0.34248 1.50692,0.137 -2.4887,5.68519 -3.15083,4.61208 -5.70803,-1.68957 -8.95018,-0.93612 -4.08695,0.11416 z"
     id="path20" /><path
     style="fill:#90693e;fill-opacity:1;stroke:none;stroke-width:0.4;stroke-linecap:round;stroke-linejoin:round;stroke-dasharray:none;stroke-opacity:1"
     d="m 68.259985,130.82942 0.89045,0.45664 0.6393,0.0457 1.36993,-0.25116 1.1416,-0.29681 1.25577,-0.41098 1.62108,-0.66213 1.73524,-1.02745 2.3517,-1.55258 1.9864,-1.73524 1.94073,-1.64391 2.53436,-3.15083 -0.0457,3.6988 -0.137,2.44303 -0.38814,3.35632 -0.57081,3.65314 -0.38814,2.03206 -0.30874,2.57639 -15.01461,0.64579 -4.2945,-5.68295 z"
     id="path17" /><path
     style="fill:#908557;fill-opacity:1;stroke:none;stroke-width:0.4;stroke-linecap:round;stroke-linejoin:round;stroke-dasharray:none;stroke-opacity:1"
     d="m 105.19909,149.11279 3.87474,-2.97064 c 0,0 3.42268,-1.42073 3.81016,-1.67905 0.38747,-0.25831 4.06847,-1.74363 4.64968,-1.93737 0.58121,-0.19373 4.26221,-1.54989 5.16632,-1.80821 0.9041,-0.25831 4.71426,-1.61447 6.00584,-1.87279 1.29158,-0.25831 4.52052,-0.58121 6.32873,-0.51663 1.80821,0.0646 3.55185,0.0646 4.71427,0.51663 1.16242,0.45206 3.55184,0.38748 4.5851,0.83953 1.03326,0.45205 2.26026,1.03326 2.26026,1.03326 0,0 -0.51663,1.42074 -0.64579,1.67906 -0.12915,0.25831 -2.32484,2.71231 -2.51857,3.22894 -0.19374,0.51663 -3.61643,3.29353 -3.93932,3.48727 -0.32289,0.19373 -4.5851,2.90605 -4.5851,2.90605 0,0 -3.09979,1.87279 -3.29353,2.19568 -0.19374,0.3229 -2.84147,2.13111 -2.84147,2.13111 0,0 -1.5499,0.51663 -1.80821,0.64579 -0.25832,0.12915 -2.454,-0.64579 -3.16437,-1.16243 -0.71037,-0.51663 -2.26027,-0.77494 -3.22895,-1.35615 -0.96868,-0.58121 -1.54989,-0.77495 -3.3581,-1.87279 -1.80822,-1.09784 -2.64774,-1.61448 -3.42269,-1.80821 -0.77495,-0.19374 -4.52052,-0.38748 -4.97258,-0.58121 -0.45205,-0.19374 -3.61642,-1.09784 -3.61642,-1.09784 z"
     id="path16" /><path
     style="fill:#4b879f;fill-opacity:1;stroke:none;stroke-width:0.4;stroke-linecap:round;stroke-linejoin:round;stroke-dasharray:none;stroke-opacity:1"
     d="m 67.375745,137.9756 c 0,0 5.52536,-0.22833 5.70802,-0.22833 0.18266,0 3.65314,-0.0913 4.20111,-0.0913 0.54797,0 2.55719,0.0457 3.60747,0.0913 1.05028,0.0457 1.96356,0.0457 2.78552,0.137 0.82195,0.0913 4.01845,0.22832 4.47509,0.36531 0.45664,0.13699 2.4202,0.41098 2.83118,0.50231 0.41098,0.0913 1.41559,0.0913 2.4202,0.31965 1.00462,0.22832 2.69419,0.95895 2.69419,0.95895 v 1.7809 c 0,0 -2.92251,1.05027 -3.28782,1.18727 -0.36532,0.13699 -1.68958,0.41098 -2.00923,0.59363 -0.31965,0.18266 -1.23293,0.82196 -1.23293,0.82196 0,0 -0.13699,1.9179 0.22832,1.96356 0.36531,0.0457 1.96356,0.27398 2.64852,0.31965 0.68497,0.0457 3.05951,0.31965 3.97279,0.6393 0.91328,0.31965 3.790125,0.59363 4.886065,0.86762 1.09594,0.27398 3.1965,0.59363 4.74908,0.82195 1.55258,0.22832 4.42942,0.73063 4.8404,0.82196 0.41098,0.0913 9.77214,4.01845 9.77214,4.01845 l 4.29244,2.37454 v 2.55719 c 0,0 -5.84502,1.64392 -6.57565,1.64392 -0.73062,0 -13.88191,0.54797 -13.88191,0.54797 l -9.680815,-1.2786 -12.42066,-6.39299 -8.76753,-6.39299 z"
     id="path15" /><path
     style="fill:none;fill-opacity:1;stroke:#5a492f;stroke-width:3;stroke-linecap:round;stroke-linejoin:round;stroke-dasharray:none;stroke-opacity:1"
     d="m 82.175755,138.68423 5.74752,-4.26221 6.97453,-5.55379 7.943205,-7.74948 7.68489,-7.81405 7.6849,-8.07237 4.87666,-5.651604 0.77494,-0.904105 0.71037,-0.06458 0.51663,0.258316 0.58121,0.645789 1.67906,1.679054 4.45594,4.71426 6.78079,7.29742 7.81405,7.81405 7.16827,6.97453"
     id="path10"
     sodipodi:nodetypes="cccccccccccccccc" /><path
     style="fill:none;fill-opacity:1;stroke:#5a492f;stroke-width:3;stroke-linecap:round;stroke-linejoin:round;stroke-dasharray:none;stroke-opacity:1"
     d="m 64.256045,133.0972 18.98621,-17.75921 0.83953,-0.64579 1.03326,-0.58121 0.77495,-0.12916 0.71037,0.0646 0.64579,0.12916 0.96868,0.64579 1.61447,1.48531 2.454,2.13111 2.58316,2.38942 4.06847,3.55184"
     id="path9" /><path
     style="fill:none;fill-opacity:1;stroke:#5a492f;stroke-width:3;stroke-linecap:round;stroke-linejoin:round;stroke-dasharray:none;stroke-opacity:1"
     d="m 104.39698,149.56188 4.80717,-2.54287 5.34271,-2.69419 5.52537,-2.46587 5.25138,-1.91789 2.05489,-0.41098 2.64853,-0.31965 2.83118,-0.0913 3.56181,0.13699 3.24215,0.31965 3.42482,0.54797 4.42943,1.09594"
     id="path8"
     sodipodi:nodetypes="cccccccccccc" /><ellipse
     style="fill:none;stroke:#215261;stroke-width:3.84763;stroke-dasharray:none;stroke-opacity:1"
     id="path1"
     cx="108.33654"
     cy="113.04483"
     rx="48.845554"
     ry="48.75423" /><path
     style="fill:none;stroke:#215261;stroke-width:3;stroke-linecap:round;stroke-linejoin:round;stroke-dasharray:none;stroke-opacity:1"
     d="m 67.604065,138.89078 8.76752,-0.18266 8.72187,0.0228 2.85401,0.137 1.2101,0.15982 1.09594,0.20549 1.07311,0.15982 1.48409,0.41098 1.5157,0.40037 0.94281,0.31965 1.62318,0.60309 0.97327,0.60864 -0.54778,0.4873 -0.79062,0.40544 -1.1137,0.48617 -1.48409,0.54797 -1.18727,0.41098 -1.03298,0.39597 -1.18383,0.47948 -1.36142,0.74286 -1.42647,1.13471 0.29453,0.22737 2.11746,0.46725 2.20925,0.39254 3.67129,0.54358 4.292435,0.52514 7.80858,1.43842 3.58464,1.00461 2.71702,0.84479 3.76729,1.39276 2.71703,1.32426 1.96356,1.2101 2.39737,2.32888"
     id="path7"
     sodipodi:nodetypes="ccccccccccccccccccccccccccccccccc" /><path
     style="fill:none;fill-opacity:1;stroke:#215261;stroke-width:3;stroke-linecap:round;stroke-linejoin:round;stroke-dasharray:none;stroke-opacity:1"
     d="m 59.567165,114.96273 20.18357,-12.51199 18.53967,6.7583 15.069185,-7.85424 15.52583,-12.146683 24.93266,7.214944"
     id="path11" /><ellipse
     style="fill:none;fill-opacity:1;stroke:#215261;stroke-width:3;stroke-linecap:round;stroke-linejoin:round;stroke-dasharray:none;stroke-opacity:1"
     id="path12"
     cx="79.70507"
     cy="103.1357"
     rx="1.9635608"
     ry="2.0548894" /><ellipse
     style="fill:none;fill-opacity:1;stroke:#215261;stroke-width:3;stroke-linecap:round;stroke-linejoin:round;stroke-dasharray:none;stroke-opacity:1"
     id="path12-4"
     cx="98.615608"
     cy="108.9401"
     rx="1.9635608"
     ry="2.0548894" /><ellipse
     style="fill:none;fill-opacity:1;stroke:#215261;stroke-width:3;stroke-linecap:round;stroke-linejoin:round;stroke-dasharray:none;stroke-opacity:1"
     id="path12-4-3"
     cx="113.62969"
     cy="101.0966"
     rx="1.9635608"
     ry="2.0548894" /><ellipse
     style="fill:none;fill-opacity:1;stroke:#215261;stroke-width:3;stroke-linecap:round;stroke-linejoin:round;stroke-dasharray:none;stroke-opacity:1"
     id="path12-4-3-6"
     cx="128.82642"
     cy="90.076752"
     rx="1.9635608"
     ry="2.0548894" /><path
     style="fill:#215261;fill-opacity:1;stroke:#215261;stroke-width:0.4;stroke-linecap:round;stroke-linejoin:round;stroke-dasharray:none;stroke-opacity:1"
     d="m 90.544065,81.846645 -0.60728,0.988072 -1.0305,1.563269 -0.8529,1.443571 -0.72651,1.210855 -0.20988,0.920249 0.0161,0.774947 0.16144,0.597356 0.62964,0.371328 1.00098,0.09687 0.74266,-0.129159 0.62964,-0.339039 0.67808,-0.67808 0.53278,-1.065551 0.17759,-1.50146 -0.0807,-2.098815 -0.3229,-1.485316 -0.2906,-1.326639 z"
     id="path13"
     sodipodi:nodetypes="ccccccccccccccccccc" /><path
     style="fill:#215261;fill-opacity:1;stroke:#215261;stroke-width:0.4;stroke-linecap:round;stroke-linejoin:round;stroke-dasharray:none;stroke-opacity:1"
     d="m 100.05035,81.889631 -0.607275,0.988072 -1.0305,1.563269 -0.8529,1.443571 -0.72651,1.210855 -0.20988,0.920249 0.0161,0.774947 0.16144,0.597356 0.62964,0.371328 1.00098,0.09687 0.74266,-0.129159 0.62964,-0.339039 0.678075,-0.67808 0.53278,-1.065551 0.17759,-1.50146 -0.0807,-2.098815 -0.3229,-1.485316 -0.2906,-1.326639 z"
     id="path13-2"
     sodipodi:nodetypes="ccccccccccccccccccc" /><path
     style="fill:#215261;fill-opacity:1;stroke:#215261;stroke-width:0.4;stroke-linecap:round;stroke-linejoin:round;stroke-dasharray:none;stroke-opacity:1"
     d="m 108.96901,81.911791 -0.60728,0.988072 -1.0305,1.563269 -0.8529,1.443571 -0.72651,1.210855 -0.20988,0.920249 0.0161,0.774947 0.16144,0.597356 0.62964,0.371328 1.00098,0.09687 0.74266,-0.129159 0.62964,-0.339039 0.67808,-0.67808 0.53278,-1.065551 0.17759,-1.50146 -0.0807,-2.098815 -0.3229,-1.485316 -0.2906,-1.326639 z"
     id="path13-2-0"
     sodipodi:nodetypes="ccccccccccccccccccc" /><path
     style="fill:#215261;fill-opacity:1;stroke:#215261;stroke-width:0.4;stroke-linecap:round;stroke-linejoin:round;stroke-dasharray:none;stroke-opacity:1"
     d="m 117.9649,81.911792 -0.60728,0.988072 -1.0305,1.563269 -0.8529,1.443571 -0.72651,1.210855 -0.20988,0.920249 0.0161,0.774947 0.16144,0.597356 0.62964,0.371328 1.00098,0.09687 0.74266,-0.129159 0.62964,-0.339039 0.67808,-0.67808 0.53278,-1.065551 0.17759,-1.50146 -0.0807,-2.098815 -0.3229,-1.485316 -0.2906,-1.326639 z"
     id="path13-2-0-9"
     sodipodi:nodetypes="ccccccccccccccccccc" /><path
     id="path14"
     style="fill:#215261;fill-opacity:1;stroke:none;stroke-width:0.50989;stroke-linecap:round;stroke-linejoin:round;stroke-dasharray:none;stroke-opacity:1"
     d="m 107.13671,51.230262 a 11.858754,9.8404675 0 0 0 -11.766715,8.772075 6.2403884,6.2240467 0 0 0 -3.18276,-0.870748 6.2403884,6.2240467 0 0 0 -6.24044,6.223909 6.2403884,6.2240467 0 0 0 0.008,0.111105 h -0.0238 v 0.317293 a 6.2403884,6.2723622 0 0 0 -0.0884,-0.0026 6.2403884,6.2723622 0 0 0 -6.24045,6.272485 6.2403884,6.2723622 0 0 0 6.24045,6.272486 6.2403884,6.2723622 0 0 0 0.0884,-0.0062 v 0.0026 h 42.879545 a 6.1262279,6.5792308 0 0 0 0.24133,0.0186 6.1262279,6.5792308 0 0 0 0.24133,-0.0186 h 0.24959 v -0.01912 a 6.1262279,6.5792308 0 0 0 5.63532,-6.541719 6.1262279,6.5792308 0 0 0 -6.12624,-6.578927 6.1262279,6.5792308 0 0 0 -1.69809,0.259416 6.2403884,6.2240467 0 0 0 0.1049,-1.075387 6.2403884,6.2240467 0 0 0 -6.24044,-6.223909 6.2403884,6.2240467 0 0 0 -2.57452,0.555521 11.858754,9.8404675 0 0 0 -11.50731,-7.468278 z" /><path
     style="fill:#5e4a31;fill-opacity:1;stroke:none;stroke-width:0.4;stroke-linecap:round;stroke-linejoin:round;stroke-dasharray:none;stroke-opacity:1"
     d="m 121.59347,102.7639 -0.95895,3.42481 -1.09594,2.28321 -1.18727,1.82657 -1.55258,2.19188 -1.65449,2.5893 -0.72651,1.21086 -0.48434,1.21085 -0.35518,1.25929 -0.83953,2.79304 -0.87182,2.74461 -0.30675,0.82338 -0.56506,1.01712 -0.77495,1.0494 -1.24314,1.66291 -0.85568,1.16243 -0.56506,0.87181 -0.92025,1.46917 -0.54892,0.83953 -0.95254,1.25929 -0.74266,0.95254 -0.62964,0.69422 2.29255,-1.45303 2.42171,-2.17954 2.22797,-2.03423 1.42074,-1.21086 1.21085,-1.227 1.21086,-1.0817 -0.24217,2.87377 -0.64579,2.66388 -1.01712,3.00292 -1.25929,2.82533 -1.16242,1.95351 -1.58218,1.95351 3.29352,-2.32484 2.7769,-2.61544 1.77592,-2.84148 1.32387,-3.40654 1.34001,-5.53764 0.59735,-2.26027 1.01712,-2.76075 1.48532,-2.38942 1.45302,-2.56701 0.0646,-0.51663 -0.0807,-1.71134 -0.0969,-3.74558 0.3229,-3.01907 0.38747,-2.79304 0.53278,-4.229918 z"
     id="path19" /><path
     style="fill:#215261;fill-opacity:1;stroke:none;stroke-width:0.4;stroke-linecap:round;stroke-linejoin:round;stroke-dasharray:none;stroke-opacity:1;paint-order:stroke fill markers"
     d="m 108.50127,161.44657 -0.57372,-1.72671 -1.11397,-1.19471 -2.29256,-1.75977 -1.8728,-1.01712 -2.51857,-1.19471 -2.373285,-1.03326 -3.16436,-1.48532 3.45498,0.41976 4.504365,1.227 3.00292,1.09785 2.50245,1.0494 2.00194,1.21086 2.01809,1.58218 1.5499,2.21183 z"
     id="path23" /><text
     xml:space="preserve"
     style="font-style:normal;font-variant:normal;font-weight:bold;font-stretch:normal;font-size:31.75px;font-family:'Tw Cen MT';-inkscape-font-specification:'Tw Cen MT Bold';fill:#215261;fill-opacity:1;stroke:none;stroke-width:0.4;stroke-linecap:round;stroke-linejoin:round;stroke-dasharray:none;stroke-opacity:1"
     x="45.721901"
     y="191.15366"
     id="text23"><tspan
       sodipodi:role="line"
       id="tspan23"
       style="font-style:normal;font-variant:normal;font-weight:bold;font-stretch:normal;font-size:31.75px;font-family:'Tw Cen MT';-inkscape-font-specification:'Tw Cen MT Bold';stroke-width:0.4"
       x="45.721901"
       y="191.15366">GRAPHID</tspan></text></svg>
